<svg xmlns="http://www.w3.org/2000/svg" xmlns:xlink="http://www.w3.org/1999/xlink" width="39.472mm" height="33.147mm" viewBox="4010.5 3246 155.4 130.5"><title></title><style type="text/css">
*[layerid="1"] {stroke:#FF0000;fill:#FF0000;}
*[layerid="2"] {stroke:#0000FF;fill:#0000FF;}
*[layerid="3"] {stroke:#FFCC00;fill:#FFCC00;}
*[layerid="4"] {stroke:#66CC33;fill:#66CC33;}
*[layerid="5"] {stroke:#808080;fill:#808080;}
*[layerid="6"] {stroke:#800000;fill:#800000;}
*[layerid="7"] {stroke:#800080;fill:#800080;stroke-opacity:0.7;fill-opacity:0.7;}
*[layerid="8"] {stroke:#AA00FF;fill:#AA00FF;stroke-opacity:0.7;fill-opacity:0.7;}
*[layerid="9"] {stroke:#6464FF;fill:#6464FF;}
*[layerid="10"] {stroke:#FF00FF;fill:#FF00FF;}
*[layerid="11"] {stroke:#C0C0C0;fill:#C0C0C0;}
*[layerid="12"] {stroke:#FFFFFF;fill:#FFFFFF;}
*[layerid="13"] {stroke:#33CC99;fill:#33CC99;}
*[layerid="14"] {stroke:#5555FF;fill:#5555FF;}
*[layerid="15"] {stroke:#F022F0;fill:#F022F0;}
*[layerid="19"] {stroke:#66CCFF;fill:#66CCFF;}
*[layerid="21"] {stroke:#999966;fill:#999966;}
*[layerid="22"] {stroke:#008000;fill:#008000;}
*[layerid="23"] {stroke:#00FF00;fill:#00FF00;}
*[layerid="24"] {stroke:#BC8E00;fill:#BC8E00;}
*[layerid="25"] {stroke:#70DBFA;fill:#70DBFA;}
*[layerid="26"] {stroke:#00CC66;fill:#00CC66;}
*[layerid="27"] {stroke:#9966FF;fill:#9966FF;}
*[layerid="28"] {stroke:#800080;fill:#800080;}
*[layerid="29"] {stroke:#008080;fill:#008080;}
*[layerid="30"] {stroke:#15935F;fill:#15935F;}
*[layerid="31"] {stroke:#000080;fill:#000080;}
*[layerid="32"] {stroke:#00B400;fill:#00B400;}
*[layerid="33"] {stroke:#2E4756;fill:#2E4756;}
*[layerid="34"] {stroke:#99842F;fill:#99842F;}
*[layerid="35"] {stroke:#FFFFAA;fill:#FFFFAA;}
*[layerid="36"] {stroke:#99842F;fill:#99842F;}
*[layerid="37"] {stroke:#2E4756;fill:#2E4756;}
*[layerid="38"] {stroke:#3535FF;fill:#3535FF;}
*[layerid="39"] {stroke:#8000BC;fill:#8000BC;}
*[layerid="40"] {stroke:#43AE5F;fill:#43AE5F;}
*[layerid="41"] {stroke:#C3ECCE;fill:#C3ECCE;}
*[layerid="42"] {stroke:#728978;fill:#728978;}
*[layerid="43"] {stroke:#39503F;fill:#39503F;}
*[layerid="44"] {stroke:#0C715D;fill:#0C715D;}
*[layerid="45"] {stroke:#5A8A80;fill:#5A8A80;}
*[layerid="46"] {stroke:#2B937E;fill:#2B937E;}
*[layerid="47"] {stroke:#23999D;fill:#23999D;}
*[layerid="48"] {stroke:#45B4E3;fill:#45B4E3;}
*[layerid="49"] {stroke:#215DA1;fill:#215DA1;}
*[layerid="50"] {stroke:#4564D7;fill:#4564D7;}
*[layerid="51"] {stroke:#6969E9;fill:#6969E9;}
*[layerid="52"] {stroke:#9069E9;fill:#9069E9;}
*[layerid="99"] {stroke:#00CCCC;fill:#00CCCC;stroke-opacity:0.6;fill-opacity:0.6;}
*[layerid="100"] {stroke:#CC9999;fill:#CC9999;}
*[layerid="101"] {stroke:#66FFCC;fill:#66FFCC;}
*[layerid="Hole"] {stroke:#222222;fill:#222222;}
*[layerid="DRCError"] {stroke:#FAD609;fill:#FAD609;}
*[fill="none"] {fill: none;}
*[stroke="none"] {stroke: none;}
path, polyline, polygon, line {stroke-linecap:round;}
g[c_partid="part_pad"][layerid="1"] ellipse:not([c_etype="pad_outer"]) {fill:#FF0000;}
g[c_partid="part_pad"][layerid="1"] polygon:not([c_etype="pad_outer"]) {fill:#FF0000;}
g[c_partid="part_pad"][layerid="1"] polyline:not([c_etype="pad_outer"]) {stroke:#FF0000;}
g[c_partid="part_pad"][layerid="2"] ellipse:not([c_etype="pad_outer"]) {fill:#0000FF;}
g[c_partid="part_pad"][layerid="2"] polygon:not([c_etype="pad_outer"]) {fill:#0000FF;}
g[c_partid="part_pad"][layerid="2"] polyline:not([c_etype="pad_outer"]) {stroke:#0000FF;}
g[c_partid="part_pad"][layerid="11"] ellipse:not([c_etype="pad_outer"]) {fill:#C0C0C0;}
g[c_partid="part_pad"][layerid="11"] polygon:not([c_etype="pad_outer"]) {fill:#C0C0C0;}
g[c_partid="part_pad"][layerid="11"] polyline:not([c_etype="pad_outer"]) {stroke:#C0C0C0;}
g[c_partid="part_pad"][layerid="11"] circle {fill:#222222;}
g[c_partid="part_pad"][layerid="11"] > polyline:nth-of-type(2) {stroke:#222222;}
g[c_partid="part_pad"][layerid="11"][c_shape="ELLIPSE"]  polyline:nth-last-of-type(1) {stroke:#222222;}
g[c_partid="part_pad"][layerid="11"][c_shape="RECT"]  polyline:nth-last-of-type(1) {stroke:#222222;}
g[c_partid="part_pad"][layerid="11"][c_shape="POLYGON"]  polyline:nth-last-of-type(1) {stroke:#222222;}
g[c_partid="part_via"] > * + circle, #gCurParts g[c_partid="part_via"] > * + circle {fill:#222222;}
g[c_partid="part_pad"] > polygon[c_etype="pad_outer"], #gCurParts g[c_partid="part_pad"] > polygon[c_etype="pad_outer"] {stroke-linejoin: round;stroke-miterlimit: 100;}
g[c_partid="part_hole"] > circle {fill: #222222;}path, polyline, polygon {stroke-linejoin:round;}
rect, circle, ellipse, polyline, line, polygon, path {shape-rendering:crispEdges;}
</style>
<rect x="4010.5" y="3246" width="155.4" height="130.5" fill="#000000" stroke="none"/><path d="M 4104.23307 3365.44955 L 4104.08 3365.48 4021.92 3365.48 4021.76693 3365.44955 4021.63716 3365.36284 4021.55045 3365.23307 4021.52 3365.08 4021.52 3288.42838 4021.55067 3288.27476 4021.63799 3288.1447 4021.76856 3288.05815 4021.92235 3288.02838 4104.08235 3288.51168 4104.2347 3288.5428 4104.36367 3288.62966 4104.44978 3288.75914 4104.48 3288.91167 4104.48 3289.93805 4104.44955 3290.09112 4104.36284 3290.22089 4104.23307 3290.3076 4104.08 3290.33805 4101.91467 3290.33805 4101.91467 3292.58443 4104.08 3292.58443 4104.23307 3292.61487 4104.36284 3292.70158 4104.44955 3292.83135 4104.48 3292.98443 4104.48 3295.63717 4104.44955 3295.79025 4104.36284 3295.92002 4104.23307 3296.00673 4104.08 3296.03717 4101.91467 3296.03717 4101.91467 3298.28355 4104.08 3298.28355 4104.23307 3298.314 4104.36284 3298.40071 4104.44955 3298.53048 4104.48 3298.68355 4104.48 3316.31615 4104.44955 3316.46922 4104.36284 3316.59899 4104.23307 3316.6857 4104.08 3316.71615 4101.91447 3316.71615 4101.91447 3318.96253 4104.08 3318.96253 4104.23307 3318.99297 4104.36284 3319.07968 4104.44955 3319.20945 4104.48 3319.36253 4104.48 3322.01527 4104.44955 3322.16835 4104.36284 3322.29812 4104.23307 3322.38483 4104.08 3322.41527 4101.91447 3322.41527 4101.91447 3324.66165 4104.08 3324.66165 4104.23307 3324.6921 4104.36284 3324.77881 4104.44955 3324.90858 4104.48 3325.06165 4104.48 3328.43805 4104.44955 3328.59112 4104.36284 3328.72089 4104.23307 3328.8076 4104.08 3328.83805 4101.91467 3328.83805 4101.91467 3331.08443 4104.08 3331.08443 4104.23307 3331.11487 4104.36284 3331.20158 4104.44955 3331.33135 4104.48 3331.48443 4104.48 3334.13717 4104.44955 3334.29025 4104.36284 3334.42002 4104.23307 3334.50673 4104.08 3334.53717 4101.91467 3334.53717 4101.91467 3336.78355 4104.08 3336.78355 4104.23307 3336.814 4104.36284 3336.90071 4104.44955 3337.03048 4104.48 3337.18355 4104.48 3354.81615 4104.44955 3354.96922 4104.36284 3355.09899 4104.23307 3355.1857 4104.08 3355.21615 4101.91447 3355.21615 4101.91447 3357.46253 4104.08 3357.46253 4104.23307 3357.49297 4104.36284 3357.57968 4104.44955 3357.70945 4104.48 3357.86253 4104.48 3360.51527 4104.44955 3360.66835 4104.36284 3360.79812 4104.23307 3360.88483 4104.08 3360.91527 4101.91447 3360.91527 4101.91447 3363.16165 4104.08 3363.16165 4104.23307 3363.1921 4104.36284 3363.27881 4104.44955 3363.40858 4104.48 3363.56165 4104.48 3365.08 4104.44955 3365.23307 4104.36284 3365.36284 4104.23307 3365.44955 Z M 4034.71284 3360.4649 L 4035.02865 3360.496 4058.72935 3360.496 4059.04516 3360.4649 4059.32994 3360.37851 4059.59239 3360.23822 4059.8377 3360.03691 4067.44625 3352.42835 4067.56367 3352.347 4067.70219 3352.3121 4067.84413 3352.32809 4067.97141 3352.39295 4068.09386 3352.53988 4068.25497 3352.70099 4068.44789 3352.82221 4068.66294 3352.89746 4068.91181 3352.9255 4082.64639 3352.9255 4082.89526 3352.89746 4083.11031 3352.82221 4083.30323 3352.70099 4083.46434 3352.53988 4083.58556 3352.34696 4083.66081 3352.13191 4083.68885 3351.88304 4083.68885 3347.99096 4083.66081 3347.74209 4083.58556 3347.52704 4083.46434 3347.33412 4083.30323 3347.17301 4083.11031 3347.05179 4082.89526 3346.97654 4082.64639 3346.9485 4068.91181 3346.9485 4068.66294 3346.97654 4068.44789 3347.05179 4068.25497 3347.17301 4068.09386 3347.33412 4067.97264 3347.52704 4067.89739 3347.74209 4067.86935 3348.04838 4067.84255 3348.19234 4067.76573 3348.31701 4067.64919 3348.40567 4067.20706 3348.53449 4066.94461 3348.67478 4066.6993 3348.87609 4061.6274 3353.94799 4061.49763 3354.0347 4061.34456 3354.06515 4058.98032 3354.06515 4058.98032 3355.86741 4059.09533 3355.96063 4059.16856 3356.08929 4059.18998 3356.23576 4059.15665 3356.38 4059.07315 3356.50224 4058.23655 3357.33884 4058.10678 3357.42555 4057.95371 3357.456 4047.20982 3357.456 4047.06368 3357.42835 4046.93775 3357.34922 4046.84943 3357.22955 4046.81093 3357.08589 4046.82759 3356.9381 4046.89708 3356.8066 4047.16131 3356.47527 4047.45785 3355.98611 4047.49873 3355.89375 4045.47245 3355.89375 4045.47245 3357.056 4045.442 3357.20907 4045.35529 3357.33884 4045.22552 3357.42555 4045.07245 3357.456 4041.92755 3357.456 4041.77448 3357.42555 4041.64471 3357.33884 4041.558 3357.20907 4041.52755 3357.056 4041.52755 3355.89375 4039.50127 3355.89375 4039.54215 3355.98611 4039.83869 3356.47527 4040.10292 3356.8066 4040.17241 3356.9381 4040.18907 3357.08589 4040.15057 3357.22955 4040.06225 3357.34922 4039.93632 3357.42835 4039.79018 3357.456 4035.80429 3357.456 4035.65122 3357.42555 4035.52145 3357.33884 4031.4385 3353.25589 4031.35179 3353.12612 4031.32134 3352.97305 4031.35179 3352.81998 4031.4385 3352.69021 4031.56827 3352.6035 4031.72134 3352.57305 4032.67834 3352.57305 4032.92721 3352.54501 4033.14226 3352.46976 4033.33518 3352.34854 4033.49629 3352.18743 4033.61751 3351.99451 4033.69276 3351.77946 4033.7208 3351.53059 4033.7208 3349.87009 4033.75125 3349.71702 4033.83796 3349.58725 4033.96773 3349.50054 4034.1208 3349.47009 4034.27387 3349.50054 4034.40364 3349.58725 4034.8773 3350.06091 4035.12261 3350.26222 4035.38506 3350.40251 4035.66984 3350.4889 4035.98565 3350.52 4039.67421 3350.52 4039.84312 3350.55742 4039.98044 3350.66267 4040.06046 3350.81606 4040.06823 3350.9889 4040.00227 3351.14885 4039.68258 3351.60716 4039.50432 3351.94885 4041.52755 3351.94885 4041.52755 3350.92 4041.558 3350.76693 4041.64471 3350.63716 4041.77448 3350.55045 4041.92755 3350.52 4045.07245 3350.52 4045.22552 3350.55045 4045.35529 3350.63716 4045.442 3350.76693 4045.47245 3350.92 4045.47245 3351.94885 4047.49568 3351.94885 4047.31742 3351.60716 4046.99773 3351.14885 4046.93177 3350.9889 4046.93954 3350.81606 4047.01956 3350.66267 4047.15688 3350.55742 4047.32579 3350.52 4053.61935 3350.52 4053.77242 3350.55045 4053.90219 3350.63716 4053.9889 3350.76693 4054.01935 3350.92 4054.01935 3351.59665 4056.01968 3351.59665 4056.01968 3350.79025 4056.05533 3350.62517 4056.15594 3350.48952 4056.58239 3350.26222 4056.8277 3350.06091 4058.56091 3348.3277 4058.76222 3348.08239 4058.90251 3347.81994 4059.03129 3347.37816 4059.11996 3347.26162 4059.24462 3347.1848 4059.38858 3347.158 4059.93819 3347.158 4060.18706 3347.12996 4060.40211 3347.05471 4060.59503 3346.93349 4060.75614 3346.77238 4060.87736 3346.57946 4060.95261 3346.36441 4060.98065 3346.11554 4060.98065 3342.22346 4060.95261 3341.97459 4060.87736 3341.75954 4060.75614 3341.56662 4060.59503 3341.40551 4060.40211 3341.28429 4060.18706 3341.20904 4059.93819 3341.181 4055.06181 3341.181 4054.81294 3341.20904 4054.59789 3341.28429 4054.40497 3341.40551 4054.24386 3341.56662 4054.12264 3341.75954 4054.04739 3341.97459 4054.01935 3342.22346 4054.01935 3346.11554 4054.04739 3346.36441 4054.12264 3346.57946 4054.35535 3346.92693 4054.38579 3347.08 4054.35535 3347.23307 4054.26864 3347.36284 4054.13887 3347.44955 4053.98579 3347.48 4047.3162 3347.48 4047.17006 3347.45235 4047.04413 3347.37322 4046.95581 3347.25355 4046.91732 3347.10989 4046.93397 3346.9621 4047.00347 3346.8306 4047.16131 3346.63267 4047.45785 3346.14351 4047.68939 3345.62044 4047.85215 3345.07205 4047.94345 3344.50735 4047.96178 3343.93562 4047.90685 3343.36623 4047.77957 3342.80855 4047.58201 3342.27172 4047.31742 3341.76456 4046.99016 3341.29539 4046.60558 3340.87193 4046.17001 3340.50113 4045.6906 3340.18907 4045.24645 3339.97517 4045.12678 3339.88685 4045.04765 3339.76092 4045.02 3339.61479 4045.02 3333.78429 4045.05045 3333.63122 4045.13716 3333.50145 4067.18651 3311.4521 4067.31628 3311.36539 4067.46935 3311.33494 4067.62242 3311.36539 4067.75219 3311.4521 4067.8389 3311.58187 4067.86935 3311.73494 4067.86935 3313.38304 4067.89739 3313.63191 4067.97264 3313.84696 4068.09386 3314.03988 4068.25497 3314.20099 4068.44789 3314.32221 4068.66294 3314.39746 4068.91181 3314.4255 4082.64639 3314.4255 4082.89526 3314.39746 4083.11031 3314.32221 4083.30323 3314.20099 4083.46434 3314.03988 4083.58556 3313.84696 4083.66081 3313.63191 4083.68885 3313.3256 4083.71565 3313.18164 4083.79247 3313.05697 4083.90901 3312.96831 4084.35094 3312.83951 4084.61339 3312.69922 4084.8587 3312.49791 4085.36791 3311.9887 4085.56922 3311.74339 4085.70951 3311.48094 4085.7959 3311.19616 4085.827 3310.88035 4085.827 3301.10965 4085.7959 3300.79384 4085.70951 3300.50906 4085.56922 3300.24661 4085.36791 3300.0013 4084.7937 3299.42709 4084.54839 3299.22578 4084.28594 3299.08549 4084.00116 3298.9991 4083.68535 3298.968 4066.87165 3298.968 4066.55584 3298.9991 4066.27106 3299.08549 4066.00861 3299.22578 4065.7633 3299.42709 4056.92478 3308.26562 4056.80385 3308.34854 4056.66116 3308.38231 4056.51589 3308.3624 4055.97233 3308.18192 4055.41085 3308.07257 4054.84 3308.03592 4054.26915 3308.07257 4053.70767 3308.18192 4053.16478 3308.36217 4052.6494 3308.61037 4052.16999 3308.92243 4051.73442 3309.29323 4051.34984 3309.71669 4051.02258 3310.18586 4050.75799 3310.69302 4050.56043 3311.22985 4050.43315 3311.78753 4050.37822 3312.35692 4050.39655 3312.92865 4050.48785 3313.49335 4050.65061 3314.04174 4050.88215 3314.56481 4051.17869 3315.05397 4051.53534 3315.5012 4051.94626 3315.89915 4052.40469 3316.24129 4052.90311 3316.52199 4053.07011 3316.5896 4053.20133 3316.67602 4053.28914 3316.80631 4053.32 3316.96037 4053.32 3318.58271 4053.28955 3318.73578 4053.20284 3318.86555 4050.0974 3321.97099 4049.97354 3322.0552 4049.82738 3322.08794 4049.67943 3322.06463 4049.55042 3321.98853 4049.45845 3321.87032 4049.41641 3321.72656 4049.40685 3321.62753 4049.27957 3321.06985 4049.08201 3320.53302 4048.81742 3320.02586 4048.49016 3319.55669 4048.10558 3319.13323 4047.67001 3318.76243 4047.1906 3318.45037 4046.67522 3318.20217 4046.13233 3318.02192 4045.57085 3317.91257 4045 3317.87592 4044.42915 3317.91257 4043.86767 3318.02192 4043.32478 3318.20217 4042.8094 3318.45037 4042.32999 3318.76243 4041.89442 3319.13323 4041.50984 3319.55669 4041.18258 3320.02586 4040.91799 3320.53302 4040.72043 3321.06985 4040.59315 3321.62753 4040.53822 3322.19692 4040.55655 3322.76865 4040.64785 3323.33335 4040.81061 3323.88174 4040.8524 3323.97616 4040.88659 3324.13166 4040.8574 3324.28818 4040.76948 3324.42091 4025.10709 3340.0833 4024.90578 3340.32861 4024.76549 3340.59106 4024.6791 3340.87584 4024.648 3341.19165 4024.648 3350.11535 4024.6791 3350.43116 4024.76549 3350.71594 4024.90578 3350.97839 4025.10709 3351.2237 4033.9203 3360.03691 4034.16561 3360.23822 4034.42806 3360.37851 4034.71284 3360.4649 Z M 4090.31005 3291.38051 L 4090.31005 3292.58443 4094.52492 3292.58443 4094.52492 3290.33805 4091.35251 3290.33805 4091.10364 3290.36609 4090.88859 3290.44134 4090.69567 3290.56256 4090.53456 3290.72367 4090.41334 3290.91659 4090.33809 3291.13164 4090.31005 3291.38051 Z M 4094.52473 3357.46253 L 4094.52473 3355.21615 4091.35231 3355.21615 4091.10344 3355.24419 4090.88839 3355.31944 4090.69547 3355.44066 4090.53436 3355.60177 4090.41314 3355.79469 4090.33789 3356.00974 4090.30985 3356.25861 4090.30985 3357.46253 4094.52473 3357.46253 Z M 4094.52473 3318.96253 L 4094.52473 3316.71615 4091.35231 3316.71615 4091.10344 3316.74419 4090.88839 3316.81944 4090.69547 3316.94066 4090.53436 3317.10177 4090.41314 3317.29469 4090.33789 3317.50974 4090.30985 3317.75861 4090.30985 3318.96253 4094.52473 3318.96253 Z M 4090.31005 3329.88051 L 4090.31005 3331.08443 4094.52492 3331.08443 4094.52492 3328.83805 4091.35251 3328.83805 4091.10364 3328.86609 4090.88859 3328.94134 4090.69567 3329.06256 4090.53456 3329.22367 4090.41334 3329.41659 4090.33809 3329.63164 4090.31005 3329.88051 Z M 4091.10364 3336.75551 L 4091.35251 3336.78355 4094.52492 3336.78355 4094.52492 3334.53717 4090.31005 3334.53717 4090.31005 3335.74109 4090.33809 3335.98996 4090.41334 3336.20501 4090.53456 3336.39793 4090.69567 3336.55904 4090.88859 3336.68026 4091.10364 3336.75551 Z M 4094.52473 3363.16165 L 4094.52473 3360.91527 4090.30985 3360.91527 4090.30985 3362.11919 4090.33789 3362.36806 4090.41314 3362.58311 4090.53436 3362.77603 4090.69547 3362.93714 4090.88839 3363.05836 4091.10344 3363.13361 4091.35231 3363.16165 4094.52473 3363.16165 Z M 4094.52473 3324.66165 L 4094.52473 3322.41527 4090.30985 3322.41527 4090.30985 3323.61919 4090.33789 3323.86806 4090.41314 3324.08311 4090.53436 3324.27603 4090.69547 3324.43714 4090.88839 3324.55836 4091.10344 3324.63361 4091.35231 3324.66165 4094.52473 3324.66165 Z M 4094.52492 3298.28355 L 4094.52492 3296.03717 4090.31005 3296.03717 4090.31005 3297.24109 4090.33809 3297.48996 4090.41334 3297.70501 4090.53456 3297.89793 4090.69567 3298.05904 4090.88859 3298.18026 4091.10364 3298.25551 4091.35251 3298.28355 4094.52492 3298.28355 Z M 4083.68885 3340.82875 L 4083.68885 3340.11696 4083.66081 3339.86809 4083.58556 3339.65304 4083.46434 3339.46012 4083.30323 3339.29901 4083.11031 3339.17779 4082.89526 3339.10254 4082.64639 3339.0745 4079.47398 3339.0745 4079.47398 3340.82875 4083.68885 3340.82875 Z M 4068.66294 3345.02346 L 4068.91181 3345.0515 4072.08423 3345.0515 4072.08423 3343.29725 4067.86935 3343.29725 4067.86935 3344.00904 4067.89739 3344.25791 4067.97264 3344.47296 4068.09386 3344.66588 4068.25497 3344.82699 4068.44789 3344.94821 4068.66294 3345.02346 Z M 4082.64639 3345.0515 L 4082.89526 3345.02346 4083.11031 3344.94821 4083.30323 3344.82699 4083.46434 3344.66588 4083.58556 3344.47296 4083.66081 3344.25791 4083.68885 3344.00904 4083.68885 3343.29725 4079.47398 3343.29725 4079.47398 3345.0515 4082.64639 3345.0515 Z M 4072.08423 3340.82875 L 4072.08423 3339.0745 4068.91181 3339.0745 4068.66294 3339.10254 4068.44789 3339.17779 4068.25497 3339.29901 4068.09386 3339.46012 4067.97264 3339.65304 4067.89739 3339.86809 4067.86935 3340.11696 4067.86935 3340.82875 4072.08423 3340.82875 Z M 4042.56469 3306.40129 L 4043.02755 3306.66197 4043.02755 3304.63245 4041.00127 3304.63245 4041.04215 3304.72481 4041.33869 3305.21397 4041.69534 3305.6612 4042.10626 3306.05915 4042.56469 3306.40129 Z M 4032.72469 3316.24129 L 4033.18755 3316.50197 4033.18755 3314.47245 4031.16127 3314.47245 4031.20215 3314.56481 4031.49869 3315.05397 4031.85534 3315.5012 4032.26626 3315.89915 4032.72469 3316.24129 Z M 4046.97245 3304.63245 L 4046.97245 3306.66197 4047.43531 3306.40129 4047.89374 3306.05915 4048.30466 3305.6612 4048.66131 3305.21397 4048.95785 3304.72481 4048.99873 3304.63245 4046.97245 3304.63245 Z M 4037.13245 3314.47245 L 4037.13245 3316.50197 4037.59531 3316.24129 4038.05374 3315.89915 4038.46466 3315.5012 4038.82131 3315.05397 4039.11785 3314.56481 4039.15873 3314.47245 4037.13245 3314.47245 Z M 4046.97245 3298.66531 L 4046.97245 3300.68755 4048.99568 3300.68755 4048.81742 3300.34586 4048.49016 3299.87669 4048.10558 3299.45323 4047.67001 3299.08243 4047.1906 3298.77037 4046.97245 3298.66531 Z M 4043.02755 3300.68755 L 4043.02755 3298.66531 4042.8094 3298.77037 4042.32999 3299.08243 4041.89442 3299.45323 4041.50984 3299.87669 4041.18258 3300.34586 4041.00432 3300.68755 4043.02755 3300.68755 Z M 4033.18755 3310.52755 L 4033.18755 3308.50531 4032.9694 3308.61037 4032.48999 3308.92243 4032.05442 3309.29323 4031.66984 3309.71669 4031.34258 3310.18586 4031.16432 3310.52755 4033.18755 3310.52755 Z M 4039.15568 3310.52755 L 4038.97742 3310.18586 4038.65016 3309.71669 4038.26558 3309.29323 4037.83001 3308.92243 4037.3506 3308.61037 4037.13245 3308.50531 4037.13245 3310.52755 4039.15568 3310.52755 Z M 4060.98065 3351.59665 L 4060.98065 3350.88486 4060.95261 3350.63599 4060.87736 3350.42094 4060.75614 3350.22802 4060.59503 3350.06691 4060.40211 3349.94569 4060.18706 3349.87044 4059.93819 3349.8424 4058.98032 3349.8424 4058.98032 3351.59665 4060.98065 3351.59665 Z M 4056.01968 3355.8194 L 4056.01968 3354.06515 4054.01935 3354.06515 4054.01935 3354.77694 4054.04739 3355.02581 4054.12264 3355.24086 4054.24386 3355.43378 4054.40497 3355.59489 4054.59789 3355.71611 4054.81294 3355.79136 4055.06181 3355.8194 4056.01968 3355.8194 Z " stroke-width="0" layerid="1" attachedcopperid="gge6955" c_shapetype="line" id="gge6955_0" class=""></path><polyline points="4067.788 3303.563 4067.788 3308.701 4043.5 3332.989 4043.5 3344.079" stroke-width="1"  stroke-linecap="round" fill="none" layerid="1" net="LIGHTSENSOR" id="gge8082" locked="0" /><polyline points="4075.779 3303.563 4067.788 3303.563" stroke-width="1"  stroke-linecap="round" fill="none" layerid="1" net="LIGHTSENSOR" id="gge8079" locked="0" /><polyline points="4067.788 3349.937 4058.749 3358.976 4035.009 3358.976 4026.168 3350.135 4026.168 3341.172 4045 3322.34" stroke-width="1"  stroke-linecap="round" fill="none" layerid="1" net="+3.75V" id="gge8076" locked="0" /><polyline points="4075.779 3349.937 4067.788 3349.937" stroke-width="1"  stroke-linecap="round" fill="none" layerid="1" net="+3.75V" id="gge8073" locked="0" /><polyline points="4031 3346.723 4033.689 3346.723 4035.966 3349 4055.739 3349 4057.5 3347.239" stroke-width="1"  stroke-linecap="round" fill="none" layerid="1" net="LED14_2" id="gge8070" locked="0" /><polyline points="4031 3344.034 4031 3346.723" stroke-width="1"  stroke-linecap="round" fill="none" layerid="1" net="LED14_2" id="gge8067" locked="0" /><polyline points="4057.5 3344.169 4057.5 3347.239" stroke-width="1"  stroke-linecap="round" fill="none" layerid="1" net="LED14_2" id="gge8064" locked="0" /><polyline points="4031 3349.966 4028.193 3347.159 4028.193 3341.799 4041.321 3328.671 4045.547 3328.671 4054.84 3319.378 4054.84 3312.5" stroke-width="1"  stroke-linecap="round" fill="none" layerid="1" net="PIRSENSOR" id="gge8061" locked="0" /><polyline points="4083.77 3311.437 4084.307 3310.9 4084.307 3301.09 4083.705 3300.488 4066.852 3300.488 4054.84 3312.5" stroke-width="1"  stroke-linecap="round" fill="none" layerid="1" net="PIRSENSOR" id="gge8058" locked="0" /><polyline points="4075.779 3311.437 4083.77 3311.437" stroke-width="1"  stroke-linecap="round" fill="none" layerid="1" net="PIRSENSOR" id="gge8055" locked="0" /><polyline points="4057.5 3352.831 4044.59 3352.831 4043.5 3353.921" stroke-width="1"  stroke-linecap="round" fill="none" layerid="1" net="GND" id="gge8052" locked="0" /><polyline points="4098.22 3294.311 4098.22 3320.689" stroke-width="1"  stroke-linecap="round" fill="none" layerid="1" net="GND" id="gge8049" locked="0" /><polyline points="4098.22 3320.689 4098.22 3332.811" stroke-width="1"  stroke-linecap="round" fill="none" layerid="1" net="GND" id="gge8046" locked="0" /><polyline points="4090.229 3332.811 4090.229 3335.604 4083.77 3342.063" stroke-width="1"  stroke-linecap="round" fill="none" layerid="1" net="GND" id="gge8043" locked="0" /><polyline points="4098.22 3332.811 4090.229 3332.811" stroke-width="1"  stroke-linecap="round" fill="none" layerid="1" net="GND" id="gge8040" locked="0" /><polyline points="4090.229 3359.189 4090.229 3348.522 4083.77 3342.063" stroke-width="1"  stroke-linecap="round" fill="none" layerid="1" net="GND" id="gge8037" locked="0" /><polyline points="4098.22 3359.189 4090.229 3359.189" stroke-width="1"  stroke-linecap="round" fill="none" layerid="1" net="GND" id="gge8034" locked="0" /><polyline points="4079.376 3342.063 4083.77 3342.063" stroke-width="1"  stroke-linecap="round" fill="none" layerid="1" net="GND" id="gge8031" locked="0" /><polyline points="4079.376 3342.063 4075.779 3342.063" stroke-width="1"  stroke-linecap="round" fill="none" layerid="1" net="GND" id="gge8028" locked="0" /><polyline points="4067.788 3342.063 4060.089 3349.762 4057.5 3349.762" stroke-width="1"  stroke-linecap="round" fill="none" layerid="1" net="GND" id="gge8025" locked="0" /><polyline points="4075.779 3342.063 4067.788 3342.063" stroke-width="1"  stroke-linecap="round" fill="none" layerid="1" net="GND" id="gge8022" locked="0" /><polyline points="4057.5 3352.831 4057.5 3349.762" stroke-width="1"  stroke-linecap="round" fill="none" layerid="1" net="GND" id="gge8019" locked="0" /><g c_partid="part_pad" c_etype="pinpart" c_origin="4075.779,3349.937" layerid="1" number="1" net="+3.75V" plated ="Y"  id="gge1713" locked="0" c_rotation="90" c_width="3.937" c_height="13.7795" title="+3.75V" c_shape="RECT" pasteexpansion="0" solderexpansion="0.1969"><polygon  c_etype="pad_shell" points="4068.8893 3351.9055 4068.8893 3347.9685 4082.6689 3347.9685 4082.6689 3351.9055" layerid="1" stroke-width="0" /><circle c_etype="pad_hole" cx="4075.7791" cy="3349.937" r="0" layerid="1" stroke-width="0"/></g><g c_partid="part_pad" c_etype="pinpart" c_origin="4075.779,3342.063" layerid="1" number="2" net="GND" plated ="Y"  id="gge1728" locked="0" c_rotation="90" c_width="3.937" c_height="13.7795" title="GND" c_shape="RECT" pasteexpansion="0" solderexpansion="0.1969"><polygon  c_etype="pad_shell" points="4068.8893 3344.0315 4068.8893 3340.0945 4082.6689 3340.0945 4082.6689 3344.0315" layerid="1" stroke-width="0" /><circle c_etype="pad_hole" cx="4075.7791" cy="3342.063" r="0" layerid="1" stroke-width="0"/></g><g c_partid="part_pad" c_etype="pinpart" c_origin="4098.22,3359.189" layerid="1" number="5" net="GND" plated ="Y"  id="gge1743" locked="0" c_rotation="90" c_width="5.9055" c_height="13.7795" title="GND" c_shape="RECT" pasteexpansion="0" solderexpansion="0.1969"><polygon  c_etype="pad_shell" points="4091.3303 3362.1415 4091.3303 3356.236 4105.1098 3356.236 4105.1098 3362.1415" layerid="1" stroke-width="0" /><circle c_etype="pad_hole" cx="4098.2196" cy="3359.1889" r="0" layerid="1" stroke-width="0"/></g><g c_partid="part_pad" c_etype="pinpart" c_origin="4098.22,3332.811" layerid="1" number="4" net="GND" plated ="Y"  id="gge1758" locked="0" c_rotation="90" c_width="5.9055" c_height="13.7795" title="GND" c_shape="RECT" pasteexpansion="0" solderexpansion="0.1969"><polygon  c_etype="pad_shell" points="4091.3303 3335.7639 4091.3303 3329.8584 4105.1098 3329.8584 4105.1098 3335.7639" layerid="1" stroke-width="0" /><circle c_etype="pad_hole" cx="4098.2198" cy="3332.8108" r="0" layerid="1" stroke-width="0"/></g><g c_partid="part_pad" c_etype="pinpart" c_origin="4075.779,3311.437" layerid="1" number="1" net="PIRSENSOR" plated ="Y"  id="gge1851" locked="0" c_rotation="90" c_width="3.937" c_height="13.7795" title="PIRSENSOR" c_shape="RECT" pasteexpansion="0" solderexpansion="0.1969"><polygon  c_etype="pad_shell" points="4068.8893 3313.4055 4068.8893 3309.4685 4082.6689 3309.4685 4082.6689 3313.4055" layerid="1" stroke-width="0" /><circle c_etype="pad_hole" cx="4075.7791" cy="3311.437" r="0" layerid="1" stroke-width="0"/></g><g c_partid="part_pad" c_etype="pinpart" c_origin="4075.779,3303.563" layerid="1" number="2" net="LIGHTSENSOR" plated ="Y"  id="gge1866" locked="0" c_rotation="90" c_width="3.937" c_height="13.7795" title="LIGHTSENSOR" c_shape="RECT" pasteexpansion="0" solderexpansion="0.1969"><polygon  c_etype="pad_shell" points="4068.8893 3305.5315 4068.8893 3301.5945 4082.6689 3301.5945 4082.6689 3305.5315" layerid="1" stroke-width="0" /><circle c_etype="pad_hole" cx="4075.7791" cy="3303.563" r="0" layerid="1" stroke-width="0"/></g><g c_partid="part_pad" c_etype="pinpart" c_origin="4098.22,3320.689" layerid="1" number="5" net="GND" plated ="Y"  id="gge1881" locked="0" c_rotation="90" c_width="5.9055" c_height="13.7795" title="GND" c_shape="RECT" pasteexpansion="0" solderexpansion="0.1969"><polygon  c_etype="pad_shell" points="4091.3303 3323.6415 4091.3303 3317.736 4105.1098 3317.736 4105.1098 3323.6415" layerid="1" stroke-width="0" /><circle c_etype="pad_hole" cx="4098.2196" cy="3320.6889" r="0" layerid="1" stroke-width="0"/></g><g c_partid="part_pad" c_etype="pinpart" c_origin="4098.22,3294.311" layerid="1" number="4" net="GND" plated ="Y"  id="gge1896" locked="0" c_rotation="90" c_width="5.9055" c_height="13.7795" title="GND" c_shape="RECT" pasteexpansion="0" solderexpansion="0.1969"><polygon  c_etype="pad_shell" points="4091.3303 3297.2639 4091.3303 3291.3584 4105.1098 3291.3584 4105.1098 3297.2639" layerid="1" stroke-width="0" /><circle c_etype="pad_hole" cx="4098.2198" cy="3294.3108" r="0" layerid="1" stroke-width="0"/></g><g c_partid="part_pad" c_etype="pinpart" c_origin="4057.5,3344.169" layerid="1" number="2" net="LED14_2" plated ="Y"  id="gge3705" locked="0" c_rotation="270" c_width="3.937" c_height="4.9213" title="LED14_2" c_shape="RECT" pasteexpansion="0" solderexpansion="0.2"><polygon  c_etype="pad_shell" points="4059.9602 3342.2007 4059.9602 3346.1377 4055.039 3346.1377 4055.039 3342.2007" layerid="1" stroke-width="0" /><circle c_etype="pad_hole" cx="4057.5" cy="3344.1695" r="0" layerid="1" stroke-width="0"/></g><g c_partid="part_pad" c_etype="pinpart" c_origin="4057.5,3352.831" layerid="1" number="1" net="GND" plated ="Y"  id="gge3720" locked="0" c_rotation="270" c_width="3.937" c_height="4.9213" title="GND" c_shape="RECT" pasteexpansion="0" solderexpansion="0.2"><polygon  c_etype="pad_shell" points="4059.9602 3350.8627 4059.9602 3354.7997 4055.039 3354.7997 4055.039 3350.8627" layerid="1" stroke-width="0" /><circle c_etype="pad_hole" cx="4057.5" cy="3352.8309" r="0" layerid="1" stroke-width="0"/></g><g c_partid="part_pad" c_etype="pinpart" c_origin="4031,3349.966" layerid="1" number="2" net="PIRSENSOR" plated ="Y"  id="gge4740" locked="0" c_rotation="270" c_width="3.1751" c_height="3.4016" title="PIRSENSOR" c_shape="RECT" pasteexpansion="-393.7008" solderexpansion="0.2000"><polygon  c_etype="pad_shell" points="4029.2992 3348.378 4032.7008 3348.378 4032.7008 3351.5531 4029.2992 3351.5531" layerid="1" stroke-width="0" /><circle c_etype="pad_hole" cx="4031" cy="3349.9655" r="0" layerid="1" stroke-width="0"/></g><g c_partid="part_pad" c_etype="pinpart" c_origin="4031,3344.034" layerid="1" number="1" net="LED14_2" plated ="Y"  id="gge4752" locked="0" c_rotation="270" c_width="3.1751" c_height="3.4016" title="LED14_2" c_shape="RECT" pasteexpansion="-393.7008" solderexpansion="0.2000"><polygon  c_etype="pad_shell" points="4029.2992 3345.622 4032.7008 3345.622 4032.7008 3342.4469 4029.2992 3342.4469" layerid="1" stroke-width="0" /><circle c_etype="pad_hole" cx="4031" cy="3344.0345" r="0" layerid="1" stroke-width="0"/></g><g c_partid="part_pad" c_etype="pinpart" c_origin="4043.5,3344.079" layerid="11" number="2" net="LIGHTSENSOR" plated ="Y"  id="gge5070" locked="0" c_rotation="90" c_width="6.8898" c_height="6.8898" title="LIGHTSENSOR" c_shape="ELLIPSE" pasteexpansion="0" solderexpansion="0.2"><ellipse c_etype="pad_shell" cx="4043.5" cy="3344.079" rx="3.4449" ry="3.4449" layerid="11" stroke-width="0"/><circle c_etype="pad_hole" cx="4043.5" cy="3344.0787" r="1.5" layerid="11" stroke-width="0"/></g><g c_partid="part_pad" c_etype="pinpart" c_origin="4043.5,3353.921" layerid="11" number="1" net="GND" plated ="Y"  id="gge5085" locked="0" c_rotation="90" c_width="6.8898" c_height="6.8898" title="GND" c_shape="ELLIPSE" pasteexpansion="0" solderexpansion="0.2"><ellipse c_etype="pad_shell" cx="4043.5" cy="3353.921" rx="3.4449" ry="3.4449" layerid="11" stroke-width="0"/><circle c_etype="pad_hole" cx="4043.5" cy="3353.9213" r="1.5" layerid="11" stroke-width="0"/></g><g c_partid="part_pad" c_etype="pinpart" c_origin="4045,3302.66" layerid="11" number="1" net="GND" plated ="Y"  id="gge5664" locked="0" c_rotation="90" c_width="6.8898" c_height="6.8898" title="GND" c_shape="ELLIPSE" pasteexpansion="0" solderexpansion="0.2"><ellipse c_etype="pad_shell" cx="4045" cy="3302.66" rx="3.4449" ry="3.4449" layerid="11" stroke-width="0"/><circle c_etype="pad_hole" cx="4045" cy="3302.66" r="1.7717" layerid="11" stroke-width="0"/></g><g c_partid="part_pad" c_etype="pinpart" c_origin="4035.16,3312.5" layerid="11" number="2" net="GND" plated ="Y"  id="gge5679" locked="0" c_rotation="90" c_width="6.8898" c_height="6.8898" title="GND" c_shape="ELLIPSE" pasteexpansion="0" solderexpansion="0.2"><ellipse c_etype="pad_shell" cx="4035.16" cy="3312.5" rx="3.4449" ry="3.4449" layerid="11" stroke-width="0"/><circle c_etype="pad_hole" cx="4035.16" cy="3312.5" r="1.7717" layerid="11" stroke-width="0"/></g><g c_partid="part_pad" c_etype="pinpart" c_origin="4045,3322.34" layerid="11" number="3" net="+3.75V" plated ="Y"  id="gge5694" locked="0" c_rotation="90" c_width="6.8898" c_height="6.8898" title="+3.75V" c_shape="ELLIPSE" pasteexpansion="0" solderexpansion="0.2"><ellipse c_etype="pad_shell" cx="4045" cy="3322.34" rx="3.4449" ry="3.4449" layerid="11" stroke-width="0"/><circle c_etype="pad_hole" cx="4045" cy="3322.34" r="1.7717" layerid="11" stroke-width="0"/></g><g c_partid="part_pad" c_etype="pinpart" c_origin="4054.84,3312.5" layerid="11" number="4" net="PIRSENSOR" plated ="Y"  id="gge5709" locked="0" c_rotation="90" c_width="6.8898" c_height="6.8898" title="PIRSENSOR" c_shape="ELLIPSE" pasteexpansion="0" solderexpansion="0.2"><ellipse c_etype="pad_shell" cx="4054.84" cy="3312.5" rx="3.4449" ry="3.4449" layerid="11" stroke-width="0"/><circle c_etype="pad_hole" cx="4054.84" cy="3312.5" r="1.7717" layerid="11" stroke-width="0"/></g><polyline points="4036.807 3340.86 4050.1928 3340.86" stroke-width="1"  stroke-linecap="round" fill="none" layerid="3" net="" id="gge5034" locked="0" /><polyline points="4036.8071 3357 4050.1929 3357" stroke-width="1"  stroke-linecap="round" fill="none" layerid="3" net="" id="gge5037" locked="0" /><polyline points="4036.807 3357 4036.807 3340.86" stroke-width="1"  stroke-linecap="round" fill="none" layerid="3" net="" id="gge5040" locked="0" /><polyline points="4050.193 3357 4050.193 3340.86" stroke-width="1"  stroke-linecap="round" fill="none" layerid="3" net="" id="gge5043" locked="0" /><polyline points="4041.5 3349 4041.5 3350.1578 4040.5 3350.1578 4039.5 3350.1578 4039.5 3346.5789 4038.5 3346.5789" stroke-width="1"  stroke-linecap="round" fill="none" layerid="3" net="" id="gge5046" locked="0" /><polyline points="4045.5 3349.5789 4045.5 3348.4211 4046.5 3348.4211 4047.5 3348.4211 4047.5 3352 4048.5 3352" stroke-width="1"  stroke-linecap="round" fill="none" layerid="3" net="" id="gge5049" locked="0" /><polyline points="4033.189 3298.403 4030.235 3295.451 4027.283 3298.403 4030.236 3301.356" stroke-width="1"  stroke-linecap="round" fill="none" layerid="3" net="" id="gge5631" locked="0" /><polyline points="4104.6176 3345.3533 4104.6176 3336.6739" stroke-width="1"  stroke-linecap="round" fill="none" layerid="3" net="" id="gge1671" locked="0" /><polyline points="4104.6176 3345.3533 4104.6176 3355.326" stroke-width="1"  stroke-linecap="round" fill="none" layerid="3" net="" id="gge1674" locked="0" /><polyline points="4080.3186 3333.9957 4080.3186 3339.1845" stroke-width="1"  stroke-linecap="round" fill="none" layerid="3" net="" id="gge1677" locked="0" /><polyline points="4074.417 3330.2515 4074.417 3333.9956" stroke-width="1"  stroke-linecap="round" fill="none" layerid="3" net="" id="gge1680" locked="0" /><polyline points="4074.417 3333.9956 4080.3186 3333.9956" stroke-width="1"  stroke-linecap="round" fill="none" layerid="3" net="" id="gge1683" locked="0" /><polyline points="4074.417 3330.2514 4090.1409 3330.2514" stroke-width="1"  stroke-linecap="round" fill="none" layerid="3" net="" id="gge1686" locked="0" /><polyline points="4080.3186 3347.0585 4080.3186 3344.9415" stroke-width="1"  stroke-linecap="round" fill="none" layerid="3" net="" id="gge1689" locked="0" /><polyline points="4080.3186 3353.0043 4080.3186 3352.8155" stroke-width="1"  stroke-linecap="round" fill="none" layerid="3" net="" id="gge1692" locked="0" /><polyline points="4090.5341 3361.9369 4074.417 3361.9369" stroke-width="1"  stroke-linecap="round" fill="none" layerid="3" net="" id="gge1695" locked="0" /><polyline points="4074.417 3361.9369 4074.417 3358.1928 4080.3186 3358.1928 4080.3186 3353.0043" stroke-width="1"  stroke-linecap="round" fill="none" layerid="3" net="" id="gge1698" locked="0" /><polyline points="4104.6176 3306.8533 4104.6176 3298.1739" stroke-width="1"  stroke-linecap="round" fill="none" layerid="3" net="" id="gge1809" locked="0" /><polyline points="4104.6176 3306.8533 4104.6176 3316.826" stroke-width="1"  stroke-linecap="round" fill="none" layerid="3" net="" id="gge1812" locked="0" /><polyline points="4080.3186 3295.4957 4080.3186 3300.6845" stroke-width="1"  stroke-linecap="round" fill="none" layerid="3" net="" id="gge1815" locked="0" /><polyline points="4074.417 3291.7515 4074.417 3295.4956" stroke-width="1"  stroke-linecap="round" fill="none" layerid="3" net="" id="gge1818" locked="0" /><polyline points="4074.417 3295.4956 4080.3186 3295.4956" stroke-width="1"  stroke-linecap="round" fill="none" layerid="3" net="" id="gge1821" locked="0" /><polyline points="4074.417 3291.7514 4090.1409 3291.7514" stroke-width="1"  stroke-linecap="round" fill="none" layerid="3" net="" id="gge1824" locked="0" /><polyline points="4080.3186 3308.5585 4080.3186 3306.4415" stroke-width="1"  stroke-linecap="round" fill="none" layerid="3" net="" id="gge1827" locked="0" /><polyline points="4080.3186 3314.5043 4080.3186 3314.3155" stroke-width="1"  stroke-linecap="round" fill="none" layerid="3" net="" id="gge1830" locked="0" /><polyline points="4090.5341 3323.4369 4074.417 3323.4369" stroke-width="1"  stroke-linecap="round" fill="none" layerid="3" net="" id="gge1833" locked="0" /><polyline points="4074.417 3323.4369 4074.417 3319.6928 4080.3186 3319.6928 4080.3186 3314.5043" stroke-width="1"  stroke-linecap="round" fill="none" layerid="3" net="" id="gge1836" locked="0" /><polyline points="4053.7598 3346.5318 4053.7205 3340.7047" stroke-width="1"  stroke-linecap="round" fill="none" layerid="3" net="" id="gge3666" locked="0" /><polyline points="4061.2008 3345.9803 4061.2008 3340.7047" stroke-width="1"  stroke-linecap="round" fill="none" layerid="3" net="" id="gge3669" locked="0" /><polyline points="4053.7205 3340.7047 4061.2009 3340.7047" stroke-width="1"  stroke-linecap="round" fill="none" layerid="3" net="" id="gge3672" locked="0" /><polyline points="4061.2402 3355.3902 4061.24 3355.3902 4059.8623 3356.7679" stroke-width="1"  stroke-linecap="round" fill="none" layerid="3" net="" id="gge3675" locked="0" /><polyline points="4053.7598 3355.3902 4053.76 3355.3902 4055.1377 3356.7679" stroke-width="1"  stroke-linecap="round" fill="none" layerid="3" net="" id="gge3678" locked="0" /><polyline points="4053.7598 3350.4688 4053.7598 3355.3902" stroke-width="1"  stroke-linecap="round" fill="none" layerid="3" net="" id="gge3681" locked="0" /><polyline points="4061.2402 3350.4688 4061.2402 3355.3902" stroke-width="1"  stroke-linecap="round" fill="none" layerid="3" net="" id="gge3684" locked="0" /><polyline points="4055.1377 3356.7679 4059.8623 3356.7679" stroke-width="1"  stroke-linecap="round" fill="none" layerid="3" net="" id="gge3687" locked="0" /><polyline points="4055.5315 3347.3189 4059.4685 3347.3189" stroke-width="1"  stroke-linecap="round" fill="none" layerid="3" net="" id="gge3690" locked="0" /><polyline points="4057.5199 3347.3189 4057.5199 3349.2874" stroke-width="1"  stroke-linecap="round" fill="none" layerid="3" net="" id="gge3693" locked="0" /><polyline points="4028.3992 3348.678 4028.3992 3352.4531 4033.6008 3352.4531 4033.6008 3348.678" stroke-width="0.6"  stroke-linecap="round" fill="none" layerid="3" net="" id="gge4725" locked="0" /><polyline points="4028.3992 3345.322 4028.3992 3341.5469 4033.6008 3341.5469 4033.6008 3345.322" stroke-width="0.6"  stroke-linecap="round" fill="none" layerid="3" net="" id="gge4728" locked="0" /><g c_partid="part_pcbtext" c_etype="pinpart" c_origin="4065,3343.5" c_rotation="0" c_mirror="0" id="gge6982" locked="0" layerid="3" c_shapetype="group" ><path c_fontsize="2.9528" c_fontfamily="" c_text="-" d="M 4065 3342.1299 L 4067.42 3342.1299" fill="none"  stroke-width="0.8"  /></g><g c_partid="part_pcbtext" c_etype="pinpart" c_origin="4065,3351.5" c_rotation="0" c_mirror="0" id="gge7012" locked="0" layerid="3" c_shapetype="group" ><path c_fontsize="2.9528" c_fontfamily="" c_text="+" d="M 4066.21 3348.92 L 4066.21 3351.34 M 4065 3350.13 L 4067.42 3350.13" fill="none"  stroke-width="0.8"  /></g><g c_partid="part_pcbtext" c_etype="pinpart" c_origin="4067.5,3315.5" c_rotation="90" c_mirror="0" id="gge7024" locked="0" layerid="3" c_shapetype="group" ><path c_fontsize="2.9528" c_fontfamily="" c_text="PIR" d="M 4064.5199 3315.5 L 4067.3399 3315.5 M 4064.5199 3315.5 L 4064.5199 3314.29 L 4064.6499 3313.89 L 4064.7899 3313.76 L 4065.0599 3313.62 L 4065.4599 3313.62 L 4065.7299 3313.76 L 4065.8599 3313.89 L 4065.9999 3314.29 L 4065.9999 3315.5 M 4064.5199 3312.74 L 4067.3399 3312.74 M 4064.5199 3311.85 L 4067.3399 3311.85 M 4064.5199 3311.85 L 4064.5199 3310.64 L 4064.6499 3310.24 L 4064.7899 3310.1 L 4065.0599 3309.97 L 4065.3299 3309.97 L 4065.5899 3310.1 L 4065.7299 3310.24 L 4065.8599 3310.64 L 4065.8599 3311.85 M 4065.8599 3310.91 L 4067.3399 3309.97" fill="none"  stroke-width="0.8"  /></g><g c_partid="part_pcbtext" c_etype="pinpart" c_origin="4067,3306.5" c_rotation="90" c_mirror="0" id="gge7042" locked="0" layerid="3" c_shapetype="group" ><path c_fontsize="2.9528" c_fontfamily="" c_text="Light" d="M 4064.02 3306.5 L 4066.84 3306.5 M 4066.84 3306.5 L 4066.84 3304.89 M 4064.02 3304 L 4064.15 3303.87 L 4064.02 3303.74 L 4063.89 3303.87 L 4064.02 3304 M 4064.96 3303.87 L 4066.84 3303.87 M 4064.96 3301.24 L 4067.11 3301.24 L 4067.51 3301.37 L 4067.64 3301.51 L 4067.78 3301.78 L 4067.78 3302.18 L 4067.64 3302.45 M 4065.36 3301.24 L 4065.09 3301.51 L 4064.96 3301.78 L 4064.96 3302.18 L 4065.09 3302.45 L 4065.36 3302.72 L 4065.77 3302.85 L 4066.03 3302.85 L 4066.44 3302.72 L 4066.7 3302.45 L 4066.84 3302.18 L 4066.84 3301.78 L 4066.7 3301.51 L 4066.44 3301.24 M 4064.02 3300.35 L 4066.84 3300.35 M 4065.5 3300.35 L 4065.09 3299.95 L 4064.96 3299.68 L 4064.96 3299.28 L 4065.09 3299.01 L 4065.5 3298.88 L 4066.84 3298.88 M 4064.02 3297.59 L 4066.3 3297.59 L 4066.7 3297.45 L 4066.84 3297.19 L 4066.84 3296.92 M 4064.96 3297.99 L 4064.96 3297.05" fill="none"  stroke-width="0.8"  /></g><g c_partid="part_pcbtext" c_etype="" c_origin="4028.807,3349.5" c_rotation="90" c_mirror="0" id="gge5022" locked="0" layerid="3" c_shapetype="group" display="none"><path c_fontsize="4.5" c_fontfamily="" c_text="GL4539(30-40K)" d="M 4025.287 3346.43 L 4024.877 3346.64 L 4024.467 3347.05 L 4024.267 3347.45 L 4024.267 3348.27 L 4024.467 3348.68 L 4024.877 3349.09 L 4025.287 3349.3 L 4025.907 3349.5 L 4026.927 3349.5 L 4027.537 3349.3 L 4027.947 3349.09 L 4028.357 3348.68 L 4028.557 3348.27 L 4028.557 3347.45 L 4028.357 3347.05 L 4027.947 3346.64 L 4027.537 3346.43 L 4026.927 3346.43 M 4026.927 3347.45 L 4026.927 3346.43 M 4024.267 3345.08 L 4028.557 3345.08 M 4028.557 3345.08 L 4028.557 3342.63 M 4024.267 3339.23 L 4027.127 3341.28 L 4027.127 3338.21 M 4024.267 3339.23 L 4028.557 3339.23 M 4024.267 3334.4 L 4024.267 3336.45 L 4026.107 3336.65 L 4025.907 3336.45 L 4025.697 3335.84 L 4025.697 3335.22 L 4025.907 3334.61 L 4026.307 3334.2 L 4026.927 3334 L 4027.337 3334 L 4027.947 3334.2 L 4028.357 3334.61 L 4028.557 3335.22 L 4028.557 3335.84 L 4028.357 3336.45 L 4028.157 3336.65 L 4027.747 3336.86 M 4024.267 3332.24 L 4024.267 3329.99 L 4025.907 3331.21 L 4025.907 3330.6 L 4026.107 3330.19 L 4026.307 3329.99 L 4026.927 3329.78 L 4027.337 3329.78 L 4027.947 3329.99 L 4028.357 3330.4 L 4028.557 3331.01 L 4028.557 3331.62 L 4028.357 3332.24 L 4028.157 3332.44 L 4027.747 3332.65 M 4025.697 3325.77 L 4026.307 3325.98 L 4026.717 3326.39 L 4026.927 3327 L 4026.927 3327.2 L 4026.717 3327.82 L 4026.307 3328.23 L 4025.697 3328.43 L 4025.497 3328.43 L 4024.877 3328.23 L 4024.467 3327.82 L 4024.267 3327.2 L 4024.267 3327 L 4024.467 3326.39 L 4024.877 3325.98 L 4025.697 3325.77 L 4026.717 3325.77 L 4027.747 3325.98 L 4028.357 3326.39 L 4028.557 3327 L 4028.557 3327.41 L 4028.357 3328.02 L 4027.947 3328.23 M 4023.447 3322.99 L 4023.857 3323.4 L 4024.467 3323.81 L 4025.287 3324.22 L 4026.307 3324.42 L 4027.127 3324.42 L 4028.157 3324.22 L 4028.967 3323.81 L 4029.587 3323.4 L 4029.997 3322.99 M 4024.267 3321.23 L 4024.267 3318.98 L 4025.907 3320.21 L 4025.907 3319.6 L 4026.107 3319.19 L 4026.307 3318.98 L 4026.927 3318.78 L 4027.337 3318.78 L 4027.947 3318.98 L 4028.357 3319.39 L 4028.557 3320 L 4028.557 3320.62 L 4028.357 3321.23 L 4028.157 3321.44 L 4027.747 3321.64 M 4024.267 3316.2 L 4024.467 3316.81 L 4025.087 3317.22 L 4026.107 3317.43 L 4026.717 3317.43 L 4027.747 3317.22 L 4028.357 3316.81 L 4028.557 3316.2 L 4028.557 3315.79 L 4028.357 3315.18 L 4027.747 3314.77 L 4026.717 3314.56 L 4026.107 3314.56 L 4025.087 3314.77 L 4024.467 3315.18 L 4024.267 3315.79 L 4024.267 3316.2 M 4026.717 3313.21 L 4026.717 3309.53 M 4024.267 3306.14 L 4027.127 3308.18 L 4027.127 3305.11 M 4024.267 3306.14 L 4028.557 3306.14 M 4024.267 3302.54 L 4024.467 3303.15 L 4025.087 3303.56 L 4026.107 3303.76 L 4026.717 3303.76 L 4027.747 3303.56 L 4028.357 3303.15 L 4028.557 3302.54 L 4028.557 3302.13 L 4028.357 3301.51 L 4027.747 3301.1 L 4026.717 3300.9 L 4026.107 3300.9 L 4025.087 3301.1 L 4024.467 3301.51 L 4024.267 3302.13 L 4024.267 3302.54 M 4024.267 3299.55 L 4028.557 3299.55 M 4024.267 3296.69 L 4027.127 3299.55 M 4026.107 3298.53 L 4028.557 3296.69 M 4023.447 3295.34 L 4023.857 3294.93 L 4024.467 3294.52 L 4025.287 3294.11 L 4026.307 3293.9 L 4027.127 3293.9 L 4028.157 3294.11 L 4028.967 3294.52 L 4029.587 3294.93 L 4029.997 3295.34" fill="none"  stroke-width="0.6" c_note="note_name" /></g><g c_partid="part_pcbtext" c_etype="" c_origin="4037,3339.5" c_rotation="0" c_mirror="0" id="gge5028" locked="0" layerid="3" c_shapetype="group" ><path c_fontsize="2.9528" c_fontfamily="" c_text="R14" d="M 4037 3336.5204 L 4037 3339.3389 M 4037 3336.5204 L 4038.2079 3336.5204 L 4038.6106 3336.6546 L 4038.7448 3336.7888 L 4038.879 3337.0573 L 4038.879 3337.3257 L 4038.7448 3337.5941 L 4038.6106 3337.7283 L 4038.2079 3337.8626 L 4037 3337.8626 M 4037.9395 3337.8626 L 4038.879 3339.3389 M 4039.7648 3337.0573 L 4040.0333 3336.9231 L 4040.4359 3336.5204 L 4040.4359 3339.3389 M 4042.6639 3336.5204 L 4041.3218 3338.3994 L 4043.335 3338.3994 M 4042.6639 3336.5204 L 4042.6639 3339.3389" fill="none"  stroke-width="0.6" c_note="note_pre" /></g><g c_partid="part_pcbtext" c_etype="" c_origin="4018,3312.5" c_rotation="90" c_mirror="0" id="gge5619" locked="0" layerid="3" c_shapetype="group" display="none"><path c_fontsize="4.5" c_fontfamily="" c_text="P924M-S" d="M 4013.46 3312.5 L 4017.75 3312.5 M 4013.46 3312.5 L 4013.46 3310.66 L 4013.66 3310.05 L 4013.87 3309.84 L 4014.28 3309.64 L 4014.89 3309.64 L 4015.3 3309.84 L 4015.5 3310.05 L 4015.71 3310.66 L 4015.71 3312.5 M 4014.89 3305.63 L 4015.5 3305.83 L 4015.91 3306.24 L 4016.12 3306.85 L 4016.12 3307.06 L 4015.91 3307.67 L 4015.5 3308.08 L 4014.89 3308.29 L 4014.69 3308.29 L 4014.07 3308.08 L 4013.66 3307.67 L 4013.46 3307.06 L 4013.46 3306.85 L 4013.66 3306.24 L 4014.07 3305.83 L 4014.89 3305.63 L 4015.91 3305.63 L 4016.94 3305.83 L 4017.55 3306.24 L 4017.75 3306.85 L 4017.75 3307.26 L 4017.55 3307.88 L 4017.14 3308.08 M 4014.48 3304.07 L 4014.28 3304.07 L 4013.87 3303.87 L 4013.66 3303.66 L 4013.46 3303.25 L 4013.46 3302.44 L 4013.66 3302.03 L 4013.87 3301.82 L 4014.28 3301.62 L 4014.69 3301.62 L 4015.1 3301.82 L 4015.71 3302.23 L 4017.75 3304.28 L 4017.75 3301.41 M 4013.46 3298.02 L 4016.32 3300.06 L 4016.32 3297 M 4013.46 3298.02 L 4017.75 3298.02 M 4013.46 3295.65 L 4017.75 3295.65 M 4013.46 3295.65 L 4017.75 3294.01 M 4013.46 3292.37 L 4017.75 3294.01 M 4013.46 3292.37 L 4017.75 3292.37 M 4015.91 3291.02 L 4015.91 3287.34 M 4014.07 3283.13 L 4013.66 3283.54 L 4013.46 3284.15 L 4013.46 3284.97 L 4013.66 3285.58 L 4014.07 3285.99 L 4014.48 3285.99 L 4014.89 3285.79 L 4015.1 3285.58 L 4015.3 3285.17 L 4015.71 3283.95 L 4015.91 3283.54 L 4016.12 3283.33 L 4016.53 3283.13 L 4017.14 3283.13 L 4017.55 3283.54 L 4017.75 3284.15 L 4017.75 3284.97 L 4017.55 3285.58 L 4017.14 3285.99" fill="none"  stroke-width="0.6" c_note="note_name" /></g><g c_partid="part_pcbtext" c_etype="" c_origin="4033,3294.5" c_rotation="0" c_mirror="0" id="gge5625" locked="0" layerid="3" c_shapetype="group" ><path c_fontsize="2.9528" c_fontfamily="" c_text="U3" d="M 4033 3291.5204 L 4033 3293.5336 L 4033.1342 3293.9363 L 4033.4026 3294.2047 L 4033.8053 3294.3389 L 4034.0737 3294.3389 L 4034.4764 3294.2047 L 4034.7448 3293.9363 L 4034.879 3293.5336 L 4034.879 3291.5204 M 4036.0333 3291.5204 L 4037.5097 3291.5204 L 4036.7044 3292.5941 L 4037.107 3292.5941 L 4037.3754 3292.7284 L 4037.5097 3292.8626 L 4037.6439 3293.2652 L 4037.6439 3293.5336 L 4037.5097 3293.9363 L 4037.2412 3294.2047 L 4036.8386 3294.3389 L 4036.4359 3294.3389 L 4036.0333 3294.2047 L 4035.8991 3294.0705 L 4035.7648 3293.8021" fill="none"  stroke-width="0.6" c_note="note_pre" /></g><g c_partid="part_pcbtext" c_etype="" c_origin="4060.5,3346.063" c_rotation="90" c_mirror="0" id="gge1641" locked="0" layerid="3" c_shapetype="group" display="none"><path c_fontsize="4.5" c_fontfamily="" c_text="WAFER-PH2.0-2PWB" d="M 4055.96 3346.063 L 4060.25 3345.043 M 4055.96 3344.013 L 4060.25 3345.043 M 4055.96 3344.013 L 4060.25 3342.993 M 4055.96 3341.973 L 4060.25 3342.993 M 4055.96 3338.983 L 4060.25 3340.623 M 4055.96 3338.983 L 4060.25 3337.353 M 4058.82 3340.013 L 4058.82 3337.963 M 4055.96 3336.003 L 4060.25 3336.003 M 4055.96 3336.003 L 4055.96 3333.343 M 4058 3336.003 L 4058 3334.363 M 4055.96 3331.993 L 4060.25 3331.993 M 4055.96 3331.993 L 4055.96 3329.333 M 4058 3331.993 L 4058 3330.353 M 4060.25 3331.993 L 4060.25 3329.333 M 4055.96 3327.983 L 4060.25 3327.983 M 4055.96 3327.983 L 4055.96 3326.143 L 4056.16 3325.523 L 4056.37 3325.323 L 4056.78 3325.113 L 4057.19 3325.113 L 4057.6 3325.323 L 4057.8 3325.523 L 4058 3326.143 L 4058 3327.983 M 4058 3326.553 L 4060.25 3325.113 M 4058.41 3323.763 L 4058.41 3320.083 M 4055.96 3318.733 L 4060.25 3318.733 M 4055.96 3318.733 L 4055.96 3316.893 L 4056.16 3316.283 L 4056.37 3316.073 L 4056.78 3315.873 L 4057.39 3315.873 L 4057.8 3316.073 L 4058 3316.283 L 4058.21 3316.893 L 4058.21 3318.733 M 4055.96 3314.523 L 4060.25 3314.523 M 4055.96 3311.663 L 4060.25 3311.663 M 4058 3314.523 L 4058 3311.663 M 4056.98 3310.103 L 4056.78 3310.103 L 4056.37 3309.903 L 4056.16 3309.693 L 4055.96 3309.283 L 4055.96 3308.463 L 4056.16 3308.063 L 4056.37 3307.853 L 4056.78 3307.653 L 4057.19 3307.653 L 4057.6 3307.853 L 4058.21 3308.263 L 4060.25 3310.313 L 4060.25 3307.443 M 4059.23 3305.893 L 4059.44 3306.093 L 4059.64 3305.893 L 4059.44 3305.683 L 4059.23 3305.893 M 4055.96 3303.113 L 4056.16 3303.723 L 4056.78 3304.133 L 4057.8 3304.333 L 4058.41 3304.333 L 4059.44 3304.133 L 4060.05 3303.723 L 4060.25 3303.113 L 4060.25 3302.703 L 4060.05 3302.083 L 4059.44 3301.673 L 4058.41 3301.473 L 4057.8 3301.473 L 4056.78 3301.673 L 4056.16 3302.083 L 4055.96 3302.703 L 4055.96 3303.113 M 4058.41 3300.123 L 4058.41 3296.443 M 4056.98 3294.883 L 4056.78 3294.883 L 4056.37 3294.683 L 4056.16 3294.473 L 4055.96 3294.063 L 4055.96 3293.253 L 4056.16 3292.843 L 4056.37 3292.633 L 4056.78 3292.433 L 4057.19 3292.433 L 4057.6 3292.633 L 4058.21 3293.043 L 4060.25 3295.093 L 4060.25 3292.223 M 4055.96 3290.873 L 4060.25 3290.873 M 4055.96 3290.873 L 4055.96 3289.033 L 4056.16 3288.423 L 4056.37 3288.213 L 4056.78 3288.013 L 4057.39 3288.013 L 4057.8 3288.213 L 4058 3288.423 L 4058.21 3289.033 L 4058.21 3290.873 M 4055.96 3286.663 L 4060.25 3285.643 M 4055.96 3284.613 L 4060.25 3285.643 M 4055.96 3284.613 L 4060.25 3283.593 M 4055.96 3282.573 L 4060.25 3283.593 M 4055.96 3281.223 L 4060.25 3281.223 M 4055.96 3281.223 L 4055.96 3279.383 L 4056.16 3278.763 L 4056.37 3278.563 L 4056.78 3278.363 L 4057.19 3278.363 L 4057.6 3278.563 L 4057.8 3278.763 L 4058 3279.383 M 4058 3281.223 L 4058 3279.383 L 4058.21 3278.763 L 4058.41 3278.563 L 4058.82 3278.363 L 4059.44 3278.363 L 4059.85 3278.563 L 4060.05 3278.763 L 4060.25 3279.383 L 4060.25 3281.223" fill="none"  stroke-width="0.6" c_note="note_name" /></g><g c_partid="part_pcbtext" c_etype="" c_origin="4073,3362" c_rotation="90" c_mirror="0" id="gge1647" locked="0" layerid="3" c_shapetype="group" ><path c_fontsize="2.9528" c_fontfamily="" c_text="H4" d="M 4070.02 3362 L 4072.84 3362 M 4070.02 3360.12 L 4072.84 3360.12 M 4071.36 3362 L 4071.36 3360.12 M 4070.02 3357.89 L 4071.9 3359.24 L 4071.9 3357.22 M 4070.02 3357.89 L 4072.84 3357.89" fill="none"  stroke-width="0.6" c_note="note_pre" /></g><g c_partid="part_pcbtext" c_etype="" c_origin="4060.5,3307.563" c_rotation="90" c_mirror="0" id="gge1779" locked="0" layerid="3" c_shapetype="group" display="none"><path c_fontsize="4.5" c_fontfamily="" c_text="WAFER-PH2.0-2PWB" d="M 4055.96 3307.563 L 4060.25 3306.543 M 4055.96 3305.513 L 4060.25 3306.543 M 4055.96 3305.513 L 4060.25 3304.493 M 4055.96 3303.473 L 4060.25 3304.493 M 4055.96 3300.483 L 4060.25 3302.123 M 4055.96 3300.483 L 4060.25 3298.853 M 4058.82 3301.513 L 4058.82 3299.463 M 4055.96 3297.503 L 4060.25 3297.503 M 4055.96 3297.503 L 4055.96 3294.843 M 4058 3297.503 L 4058 3295.863 M 4055.96 3293.493 L 4060.25 3293.493 M 4055.96 3293.493 L 4055.96 3290.833 M 4058 3293.493 L 4058 3291.853 M 4060.25 3293.493 L 4060.25 3290.833 M 4055.96 3289.483 L 4060.25 3289.483 M 4055.96 3289.483 L 4055.96 3287.643 L 4056.16 3287.023 L 4056.37 3286.823 L 4056.78 3286.613 L 4057.19 3286.613 L 4057.6 3286.823 L 4057.8 3287.023 L 4058 3287.643 L 4058 3289.483 M 4058 3288.053 L 4060.25 3286.613 M 4058.41 3285.263 L 4058.41 3281.583 M 4055.96 3280.233 L 4060.25 3280.233 M 4055.96 3280.233 L 4055.96 3278.393 L 4056.16 3277.783 L 4056.37 3277.573 L 4056.78 3277.373 L 4057.39 3277.373 L 4057.8 3277.573 L 4058 3277.783 L 4058.21 3278.393 L 4058.21 3280.233 M 4055.96 3276.023 L 4060.25 3276.023 M 4055.96 3273.163 L 4060.25 3273.163 M 4058 3276.023 L 4058 3273.163 M 4056.98 3271.603 L 4056.78 3271.603 L 4056.37 3271.403 L 4056.16 3271.193 L 4055.96 3270.783 L 4055.96 3269.963 L 4056.16 3269.563 L 4056.37 3269.353 L 4056.78 3269.153 L 4057.19 3269.153 L 4057.6 3269.353 L 4058.21 3269.763 L 4060.25 3271.813 L 4060.25 3268.943 M 4059.23 3267.393 L 4059.44 3267.593 L 4059.64 3267.393 L 4059.44 3267.183 L 4059.23 3267.393 M 4055.96 3264.613 L 4056.16 3265.223 L 4056.78 3265.633 L 4057.8 3265.833 L 4058.41 3265.833 L 4059.44 3265.633 L 4060.05 3265.223 L 4060.25 3264.613 L 4060.25 3264.203 L 4060.05 3263.583 L 4059.44 3263.173 L 4058.41 3262.973 L 4057.8 3262.973 L 4056.78 3263.173 L 4056.16 3263.583 L 4055.96 3264.203 L 4055.96 3264.613 M 4058.41 3261.623 L 4058.41 3257.943 M 4056.98 3256.383 L 4056.78 3256.383 L 4056.37 3256.183 L 4056.16 3255.973 L 4055.96 3255.563 L 4055.96 3254.753 L 4056.16 3254.343 L 4056.37 3254.133 L 4056.78 3253.933 L 4057.19 3253.933 L 4057.6 3254.133 L 4058.21 3254.543 L 4060.25 3256.593 L 4060.25 3253.723 M 4055.96 3252.373 L 4060.25 3252.373 M 4055.96 3252.373 L 4055.96 3250.533 L 4056.16 3249.923 L 4056.37 3249.713 L 4056.78 3249.513 L 4057.39 3249.513 L 4057.8 3249.713 L 4058 3249.923 L 4058.21 3250.533 L 4058.21 3252.373 M 4055.96 3248.163 L 4060.25 3247.143 M 4055.96 3246.113 L 4060.25 3247.143 M 4055.96 3246.113 L 4060.25 3245.093 M 4055.96 3244.073 L 4060.25 3245.093 M 4055.96 3242.723 L 4060.25 3242.723 M 4055.96 3242.723 L 4055.96 3240.883 L 4056.16 3240.263 L 4056.37 3240.063 L 4056.78 3239.863 L 4057.19 3239.863 L 4057.6 3240.063 L 4057.8 3240.263 L 4058 3240.883 M 4058 3242.723 L 4058 3240.883 L 4058.21 3240.263 L 4058.41 3240.063 L 4058.82 3239.863 L 4059.44 3239.863 L 4059.85 3240.063 L 4060.05 3240.263 L 4060.25 3240.883 L 4060.25 3242.723" fill="none"  stroke-width="0.6" c_note="note_name" /></g><g c_partid="part_pcbtext" c_etype="" c_origin="4073.5,3323.5" c_rotation="90" c_mirror="0" id="gge1785" locked="0" layerid="3" c_shapetype="group" ><path c_fontsize="2.9528" c_fontfamily="" c_text="H5" d="M 4070.52 3323.5 L 4073.34 3323.5 M 4070.52 3321.62 L 4073.34 3321.62 M 4071.86 3323.5 L 4071.86 3321.62 M 4070.52 3319.12 L 4070.52 3320.47 L 4071.73 3320.6 L 4071.59 3320.47 L 4071.46 3320.06 L 4071.46 3319.66 L 4071.59 3319.26 L 4071.86 3318.99 L 4072.27 3318.86 L 4072.53 3318.86 L 4072.94 3318.99 L 4073.2 3319.26 L 4073.34 3319.66 L 4073.34 3320.06 L 4073.2 3320.47 L 4073.07 3320.6 L 4072.8 3320.74" fill="none"  stroke-width="0.6" c_note="note_pre" /></g><g c_partid="part_pcbtext" c_etype="" c_origin="4045.65,3348.913" c_rotation="90" c_mirror="0" id="gge3636" locked="0" layerid="3" c_shapetype="group" display="none"><path c_fontsize="4.5" c_fontfamily="" c_text="0805G (Green)" d="M 4041.1096 3347.6832 L 4041.3096 3348.3032 L 4041.9296 3348.7132 L 4042.9496 3348.9132 L 4043.5596 3348.9132 L 4044.5896 3348.7132 L 4045.1996 3348.3032 L 4045.3996 3347.6832 L 4045.3996 3347.2732 L 4045.1996 3346.6632 L 4044.5896 3346.2532 L 4043.5596 3346.0532 L 4042.9496 3346.0532 L 4041.9296 3346.2532 L 4041.3096 3346.6632 L 4041.1096 3347.2732 L 4041.1096 3347.6832 M 4041.1096 3343.6732 L 4041.3096 3344.2932 L 4041.7196 3344.4932 L 4042.1296 3344.4932 L 4042.5396 3344.2932 L 4042.7496 3343.8832 L 4042.9496 3343.0632 L 4043.1496 3342.4532 L 4043.5596 3342.0432 L 4043.9696 3341.8332 L 4044.5896 3341.8332 L 4044.9996 3342.0432 L 4045.1996 3342.2432 L 4045.3996 3342.8632 L 4045.3996 3343.6732 L 4045.1996 3344.2932 L 4044.9996 3344.4932 L 4044.5896 3344.7032 L 4043.9696 3344.7032 L 4043.5596 3344.4932 L 4043.1496 3344.0832 L 4042.9496 3343.4732 L 4042.7496 3342.6532 L 4042.5396 3342.2432 L 4042.1296 3342.0432 L 4041.7196 3342.0432 L 4041.3096 3342.2432 L 4041.1096 3342.8632 L 4041.1096 3343.6732 M 4041.1096 3339.2632 L 4041.3096 3339.8732 L 4041.9296 3340.2832 L 4042.9496 3340.4832 L 4043.5596 3340.4832 L 4044.5896 3340.2832 L 4045.1996 3339.8732 L 4045.3996 3339.2632 L 4045.3996 3338.8532 L 4045.1996 3338.2332 L 4044.5896 3337.8232 L 4043.5596 3337.6232 L 4042.9496 3337.6232 L 4041.9296 3337.8232 L 4041.3096 3338.2332 L 4041.1096 3338.8532 L 4041.1096 3339.2632 M 4041.1096 3333.8132 L 4041.1096 3335.8632 L 4042.9496 3336.0632 L 4042.7496 3335.8632 L 4042.5396 3335.2532 L 4042.5396 3334.6332 L 4042.7496 3334.0232 L 4043.1496 3333.6132 L 4043.7696 3333.4132 L 4044.1796 3333.4132 L 4044.7896 3333.6132 L 4045.1996 3334.0232 L 4045.3996 3334.6332 L 4045.3996 3335.2532 L 4045.1996 3335.8632 L 4044.9996 3336.0632 L 4044.5896 3336.2732 M 4042.1296 3328.9932 L 4041.7196 3329.1932 L 4041.3096 3329.6032 L 4041.1096 3330.0132 L 4041.1096 3330.8332 L 4041.3096 3331.2432 L 4041.7196 3331.6532 L 4042.1296 3331.8532 L 4042.7496 3332.0632 L 4043.7696 3332.0632 L 4044.3796 3331.8532 L 4044.7896 3331.6532 L 4045.1996 3331.2432 L 4045.3996 3330.8332 L 4045.3996 3330.0132 L 4045.1996 3329.6032 L 4044.7896 3329.1932 L 4044.3796 3328.9932 L 4043.7696 3328.9932 M 4043.7696 3330.0132 L 4043.7696 3328.9932 M 4040.2896 3323.0632 L 4040.6996 3323.4632 L 4041.3096 3323.8732 L 4042.1296 3324.2832 L 4043.1496 3324.4932 L 4043.9696 3324.4932 L 4044.9996 3324.2832 L 4045.8096 3323.8732 L 4046.4296 3323.4632 L 4046.8396 3323.0632 M 4042.1296 3318.6432 L 4041.7196 3318.8432 L 4041.3096 3319.2532 L 4041.1096 3319.6632 L 4041.1096 3320.4832 L 4041.3096 3320.8932 L 4041.7196 3321.3032 L 4042.1296 3321.5032 L 4042.7496 3321.7132 L 4043.7696 3321.7132 L 4044.3796 3321.5032 L 4044.7896 3321.3032 L 4045.1996 3320.8932 L 4045.3996 3320.4832 L 4045.3996 3319.6632 L 4045.1996 3319.2532 L 4044.7896 3318.8432 L 4044.3796 3318.6432 L 4043.7696 3318.6432 M 4043.7696 3319.6632 L 4043.7696 3318.6432 M 4042.5396 3317.2932 L 4045.3996 3317.2932 M 4043.7696 3317.2932 L 4043.1496 3317.0832 L 4042.7496 3316.6732 L 4042.5396 3316.2632 L 4042.5396 3315.6532 M 4043.7696 3314.3032 L 4043.7696 3311.8532 L 4043.3596 3311.8532 L 4042.9496 3312.0532 L 4042.7496 3312.2632 L 4042.5396 3312.6632 L 4042.5396 3313.2832 L 4042.7496 3313.6932 L 4043.1496 3314.1032 L 4043.7696 3314.3032 L 4044.1796 3314.3032 L 4044.7896 3314.1032 L 4045.1996 3313.6932 L 4045.3996 3313.2832 L 4045.3996 3312.6632 L 4045.1996 3312.2632 L 4044.7896 3311.8532 M 4043.7696 3310.5032 L 4043.7696 3308.0432 L 4043.3596 3308.0432 L 4042.9496 3308.2532 L 4042.7496 3308.4532 L 4042.5396 3308.8632 L 4042.5396 3309.4732 L 4042.7496 3309.8832 L 4043.1496 3310.2932 L 4043.7696 3310.5032 L 4044.1796 3310.5032 L 4044.7896 3310.2932 L 4045.1996 3309.8832 L 4045.3996 3309.4732 L 4045.3996 3308.8632 L 4045.1996 3308.4532 L 4044.7896 3308.0432 M 4042.5396 3306.6932 L 4045.3996 3306.6932 M 4043.3596 3306.6932 L 4042.7496 3306.0832 L 4042.5396 3305.6732 L 4042.5396 3305.0632 L 4042.7496 3304.6532 L 4043.3596 3304.4432 L 4045.3996 3304.4432 M 4040.2896 3303.0932 L 4040.6996 3302.6832 L 4041.3096 3302.2732 L 4042.1296 3301.8632 L 4043.1496 3301.6632 L 4043.9696 3301.6632 L 4044.9996 3301.8632 L 4045.8096 3302.2732 L 4046.4296 3302.6832 L 4046.8396 3303.0932" fill="none"  stroke-width="0.6" c_note="note_name" /></g><g c_partid="part_pcbtext" c_etype="" c_origin="4053.5,3339.5" c_rotation="0" c_mirror="0" id="gge3642" locked="0" layerid="3" c_shapetype="group" ><path c_fontsize="2.9528" c_fontfamily="" c_text="LED14" d="M 4053.5 3336.52 L 4053.5 3339.34 M 4053.5 3339.34 L 4055.11 3339.34 M 4056 3336.52 L 4056 3339.34 M 4056 3336.52 L 4057.74 3336.52 M 4056 3337.86 L 4057.07 3337.86 M 4056 3339.34 L 4057.74 3339.34 M 4058.63 3336.52 L 4058.63 3339.34 M 4058.63 3336.52 L 4059.57 3336.52 L 4059.97 3336.65 L 4060.24 3336.92 L 4060.37 3337.19 L 4060.51 3337.59 L 4060.51 3338.27 L 4060.37 3338.67 L 4060.24 3338.94 L 4059.97 3339.2 L 4059.57 3339.34 L 4058.63 3339.34 M 4061.39 3337.06 L 4061.66 3336.92 L 4062.06 3336.52 L 4062.06 3339.34 M 4064.29 3336.52 L 4062.95 3338.4 L 4064.96 3338.4 M 4064.29 3336.52 L 4064.29 3339.34" fill="none"  stroke-width="0.6" c_note="note_pre" /></g><g c_partid="part_pcbtext" c_etype="" c_origin="4047.54,3348.547" c_rotation="270" c_mirror="0" id="gge6786" locked="0" layerid="3" c_shapetype="group" display="none"><path c_fontsize="4.5" c_fontfamily="NotoSerifCJKsc-Medium" c_text="200k" d="M 4047.88 3349.0469 C 4048.09 3349.2469 4048.29 3349.4469 4048.41 3349.5569 C 4049.1 3350.2169 4049.38 3350.4369 4049.76 3350.4369 C 4050.21 3350.4369 4050.53 3350.1869 4050.53 3349.6269 C 4050.53 3349.1869 4050.31 3348.8069 4049.87 3348.7469 C 4049.79 3348.7869 4049.74 3348.8669 4049.74 3348.9569 C 4049.74 3349.0669 4049.81 3349.1469 4050.01 3349.1969 L 4050.33 3349.2869 C 4050.35 3349.3769 4050.36 3349.4569 4050.36 3349.5169 C 4050.36 3349.8469 4050.11 3350.0569 4049.74 3350.0569 C 4049.38 3350.0569 4049.05 3349.8569 4048.56 3349.4269 C 4048.34 3349.2369 4048.08 3349.0069 4047.81 3348.7669 L 4047.54 3348.7669 L 4047.54 3350.5669 L 4047.88 3350.5669 Z  M 4049.03 3351.3069 C 4050.08 3351.3069 4050.36 3351.5669 4050.36 3351.8469 C 4050.36 3352.1169 4050.08 3352.3669 4049.03 3352.3669 C 4047.94 3352.3669 4047.65 3352.1169 4047.65 3351.8469 C 4047.65 3351.5669 4047.94 3351.3069 4049.03 3351.3069 Z  M 4050.53 3351.8469 C 4050.53 3351.3769 4050.12 3350.9269 4049.03 3350.9269 C 4047.9 3350.9269 4047.48 3351.3769 4047.48 3351.8469 C 4047.48 3352.3069 4047.9 3352.7569 4049.03 3352.7569 C 4050.12 3352.7569 4050.53 3352.3069 4050.53 3351.8469 Z  M 4049.03 3353.5069 C 4050.08 3353.5069 4050.36 3353.7669 4050.36 3354.0469 C 4050.36 3354.3069 4050.08 3354.5669 4049.03 3354.5669 C 4047.94 3354.5669 4047.65 3354.3069 4047.65 3354.0469 C 4047.65 3353.7669 4047.94 3353.5069 4049.03 3353.5069 Z  M 4050.53 3354.0469 C 4050.53 3353.5669 4050.12 3353.1169 4049.03 3353.1169 C 4047.9 3353.1169 4047.48 3353.5669 4047.48 3354.0469 C 4047.48 3354.5069 4047.9 3354.9569 4049.03 3354.9569 C 4050.12 3354.9569 4050.53 3354.5069 4050.53 3354.0469 Z  M 4047.72 3357.2569 L 4048.91 3356.5169 L 4049.42 3357.0169 L 4049.47 3357.4269 L 4049.62 3357.4269 L 4049.62 3356.4169 L 4049.47 3356.4169 L 4049.4 3356.7669 L 4048.58 3355.9669 L 4050.12 3355.9669 L 4050.75 3355.9869 L 4050.78 3355.9269 L 4050.6 3355.2569 L 4050.46 3355.2569 L 4050.43 3355.6069 L 4048.46 3355.6069 C 4048.22 3355.6069 4047.96 3355.6069 4047.72 3355.6069 L 4047.68 3355.2569 L 4047.54 3355.2569 L 4047.54 3356.3269 L 4047.68 3356.3269 L 4047.72 3355.9769 C 4047.93 3355.9769 4048.15 3355.9669 4048.36 3355.9669 L 4048.66 3356.2669 L 4047.54 3356.9469 L 4047.54 3357.5369 L 4047.68 3357.5369 Z  M 4048.28 3360.3369 L 4047.85 3360.2369 L 4047.85 3359.6169 L 4047.85 3359.6169 C 4048.17 3360.0669 4048.64 3360.4269 4049.21 3360.4269 C 4050.07 3360.4269 4050.54 3359.8169 4050.54 3359.1469 C 4050.54 3358.4569 4050.07 3357.8569 4049.21 3357.8569 C 4048.64 3357.8569 4048.17 3358.2169 4047.85 3358.6669 L 4047.85 3358.6669 L 4047.85 3358.0469 L 4048.28 3357.9469 L 4048.28 3357.7169 L 4047.54 3357.7569 L 4047.54 3358.9269 L 4047.81 3358.9269 C 4048.14 3358.5269 4048.66 3358.2669 4049.21 3358.2669 C 4049.86 3358.2669 4050.35 3358.5869 4050.35 3359.1469 C 4050.35 3359.6869 4049.86 3360.0169 4049.21 3360.0169 C 4048.66 3360.0169 4048.14 3359.7569 4047.81 3359.3469 L 4047.54 3359.3469 L 4047.54 3360.5269 L 4048.28 3360.5669 Z "  stroke="none" stroke-width="0.6" c_note="note_name" /></g><g c_partid="part_pcbtext" c_etype="" c_origin="4028.5,3340.5" c_rotation="0" c_mirror="0" id="gge4704" locked="0" layerid="3" c_shapetype="group" ><path c_fontsize="2.9528" c_fontfamily="" c_text="R13" d="M 4028.5 3337.52 L 4028.5 3340.34 M 4028.5 3337.52 L 4029.71 3337.52 L 4030.11 3337.65 L 4030.24 3337.79 L 4030.38 3338.06 L 4030.38 3338.33 L 4030.24 3338.59 L 4030.11 3338.73 L 4029.71 3338.86 L 4028.5 3338.86 M 4029.44 3338.86 L 4030.38 3340.34 M 4031.26 3338.06 L 4031.53 3337.92 L 4031.94 3337.52 L 4031.94 3340.34 M 4033.09 3337.52 L 4034.57 3337.52 L 4033.76 3338.59 L 4034.16 3338.59 L 4034.43 3338.73 L 4034.57 3338.86 L 4034.7 3339.27 L 4034.7 3339.53 L 4034.57 3339.94 L 4034.3 3340.2 L 4033.9 3340.34 L 4033.49 3340.34 L 4033.09 3340.2 L 4032.96 3340.07 L 4032.82 3339.8" fill="none"  stroke-width="0.6" c_note="note_pre" /></g><circle cx="4045" cy="3312.5" r="9.843" stroke-width="1" fill="none" layerid="3" id="gge5634" locked="0"  /><circle cx="4045" cy="3312.5" r="17.91" stroke-width="1" fill="none" layerid="3" id="gge5637" locked="0"  /><circle cx="4076.37" cy="3354.976" r="1.22" stroke-width="1" fill="none" layerid="3" id="gge1701" locked="0"  /><circle cx="4076.37" cy="3316.476" r="1.22" stroke-width="1" fill="none" layerid="3" id="gge1839" locked="0"  /><polyline points="4020.5 3287 4105.5 3287.5 4105.5 3366.5 4020.5 3366.5 4020.5 3287" stroke-width="1"  stroke-linecap="round" fill="none" layerid="10" net="" id="gge6847" locked="0" /></svg>